<?xml version="1.0" encoding="utf-8"?>
<!-- Generator: Adobe Illustrator 16.0.0, SVG Export Plug-In . SVG Version: 6.00 Build 0)  -->
<!DOCTYPE svg PUBLIC "-//W3C//DTD SVG 1.1//EN" "http://www.w3.org/Graphics/SVG/1.1/DTD/svg11.dtd" [
	<!ENTITY ns_extend "http://ns.adobe.com/Extensibility/1.0/">
	<!ENTITY ns_ai "http://ns.adobe.com/AdobeIllustrator/10.0/">
	<!ENTITY ns_graphs "http://ns.adobe.com/Graphs/1.0/">
	<!ENTITY ns_vars "http://ns.adobe.com/Variables/1.0/">
	<!ENTITY ns_imrep "http://ns.adobe.com/ImageReplacement/1.0/">
	<!ENTITY ns_sfw "http://ns.adobe.com/SaveForWeb/1.0/">
	<!ENTITY ns_custom "http://ns.adobe.com/GenericCustomNamespace/1.0/">
	<!ENTITY ns_adobe_xpath "http://ns.adobe.com/XPath/1.0/">
]>
<svg version="1.1" id="Layer_1" xmlns:x="&ns_extend;" xmlns:i="&ns_ai;" xmlns:graph="&ns_graphs;"
	 xmlns="http://www.w3.org/2000/svg" xmlns:xlink="http://www.w3.org/1999/xlink" x="0px" y="0px" width="122px" height="33px"
	 viewBox="0 0 122 33" enable-background="new 0 0 122 33" xml:space="preserve">
<metadata>
	<sfw  xmlns="&ns_sfw;">
		<slices></slices>
		<sliceSourceBounds  width="121.578" height="32.505" x="0.211" y="-32.753" bottomLeftOrigin="true"></sliceSourceBounds>
	</sfw>
</metadata>
<g>
	<g>
		<path fill="#FFFFFF" d="M45.944,29.317c-0.063-0.523-0.108-1.182-0.108-2.255c-0.854,1.488-2.278,2.368-3.897,2.368
			c-1.402,0-2.476-0.681-2.913-1.841c-0.218-0.592-0.306-1.49-0.306-3.396v-3.612c0-1.14-0.088-1.599-0.328-1.796
			c-0.133-0.132-0.329-0.177-0.746-0.196c-0.285,0-0.285,0-0.394,0v-0.482l3.394-0.218c-0.108,2.035-0.13,2.562-0.13,4.072v1.905
			c0,2.211,0.043,2.803,0.306,3.568c0.263,0.81,0.876,1.226,1.774,1.226c1.204,0,2.276-0.788,2.847-2.124
			c0.328-0.743,0.394-1.227,0.394-2.584v-3.371c0-1.161-0.066-1.577-0.329-1.773c-0.133-0.131-0.351-0.199-0.745-0.219h-0.394
			v-0.482l3.395-0.218c-0.066,1.641-0.109,3.086-0.109,4.072V26.1c0,2.191,0.198,2.584,1.333,2.584h0.155v0.481L45.944,29.317z"/>
		<path fill="#FFFFFF" d="M54.66,15.482c1.313-1.645,3.219-2.496,5.583-2.496c2.388,0,4.248,0.83,5.582,2.496
			c1.205,1.53,1.819,3.435,1.819,5.736c0,2.299-0.614,4.226-1.819,5.714c-1.356,1.686-3.194,2.518-5.582,2.518
			c-2.364,0-4.292-0.875-5.583-2.518c-1.204-1.531-1.819-3.438-1.819-5.714C52.841,18.917,53.433,17.033,54.66,15.482z
			 M56.236,26.473c0.875,1.556,2.256,2.386,4.007,2.386c1.753,0,3.133-0.83,4.008-2.386c0.788-1.424,1.182-3.133,1.182-5.255
			c0-2.124-0.394-3.834-1.182-5.257c-0.875-1.575-2.255-2.386-4.008-2.386c-1.75,0-3.132,0.833-4.007,2.386
			c-0.788,1.446-1.181,3.174-1.181,5.257C55.056,23.295,55.448,25.005,56.236,26.473z"/>
		<path fill="#FFFFFF" d="M72.615,26.057c0,1.291,0.063,1.86,0.286,2.167c0.218,0.306,0.567,0.46,1.071,0.46
			c0.48,0,0.896-0.109,1.378-0.393l0.2,0.567c-0.724,0.374-1.424,0.547-2.214,0.547c-1.072,0-1.884-0.372-2.256-1.07
			c-0.241-0.44-0.305-0.921-0.305-2.541v-7.095h-1.378v-0.504c1.29-0.111,1.947-0.963,2.274-3.021l1.006-0.288
			c-0.04,0.943-0.063,1.776-0.063,3.221h2.629v0.592h-2.629V26.057z"/>
		<path fill="#FFFFFF" d="M79.836,26.057c0,1.291,0.063,1.86,0.282,2.167c0.222,0.306,0.569,0.46,1.074,0.46
			c0.48,0,0.898-0.109,1.379-0.393l0.196,0.567c-0.721,0.374-1.421,0.547-2.21,0.547c-1.074,0-1.886-0.372-2.255-1.07
			c-0.243-0.44-0.308-0.921-0.308-2.541v-7.095h-1.379v-0.504c1.291-0.111,1.947-0.963,2.275-3.021l1.008-0.288
			c-0.042,0.943-0.063,1.776-0.063,3.221h2.629v0.592h-2.629V26.057z"/>
		<path fill="#FFFFFF" d="M94.463,29.123c-0.854,0.131-1.819,0.218-2.257,0.218c-0.656,0-0.831-0.351-0.919-1.817
			c-0.35,0.394-0.636,0.634-1.072,0.941c-0.963,0.7-1.731,0.94-2.847,0.94c-0.963,0-1.688-0.219-2.235-0.677
			c-0.592-0.526-0.962-1.403-0.962-2.321c0-1.73,1.096-2.848,3.219-3.328c1.139-0.262,2.3-0.418,3.897-0.527v-1.378
			c0-1.008-0.088-1.533-0.305-1.992c-0.289-0.572-0.899-0.854-1.797-0.854c-1.443,0-2.19,0.655-2.276,2.014
			c-0.025,0.459-0.068,0.612-0.243,0.745c-0.152,0.109-0.438,0.173-0.767,0.173c-0.743,0-1.072-0.196-1.072-0.655
			c0-0.791,0.568-1.577,1.488-2.103c0.833-0.459,1.905-0.7,3.197-0.7c1.401,0,2.409,0.327,2.937,0.963
			c0.438,0.545,0.635,1.27,0.635,2.476c0,0.064,0,0.064-0.046,2.211l-0.021,2.08l-0.021,1.006c0,0.921,0.108,1.708,0.239,1.886
			c0.133,0.173,0.393,0.238,1.228,0.238V29.123z M91.287,23.058c-1.949,0.173-2.804,0.351-3.68,0.786
			c-0.961,0.464-1.467,1.339-1.467,2.497c0,1.38,0.743,2.32,1.839,2.32c1.117,0,2.257-0.655,2.804-1.599
			c0.351-0.611,0.504-1.531,0.504-2.978V23.058z"/>
		<path fill="#FFFFFF" d="M99.938,29.254h-1.141l-2.715-9.088c-0.372-1.249-0.635-1.512-1.706-1.576v-0.482h4.859v0.482
			c-1.05,0.041-1.467,0.263-1.467,0.81c0,0.175,0.066,0.505,0.197,0.963l1.972,6.877l2.89-8.846h0.896l2.781,8.846l1.904-6.438
			c0.179-0.547,0.266-0.964,0.266-1.271c0-0.372-0.22-0.656-0.615-0.788c-0.263-0.088-0.417-0.111-0.986-0.152v-0.482h4.294v0.482
			c-1.206,0.064-1.62,0.481-2.146,2.166l-2.651,8.498h-1.116l-2.735-8.409L99.938,29.254z"/>
		<path fill="#FFFFFF" d="M121.789,29.123c-0.854,0.131-1.814,0.218-2.257,0.218c-0.655,0-0.831-0.351-0.918-1.817
			c-0.349,0.394-0.633,0.634-1.072,0.941c-0.964,0.7-1.73,0.94-2.847,0.94c-0.961,0-1.688-0.219-2.234-0.677
			c-0.591-0.526-0.961-1.403-0.961-2.321c0-1.73,1.094-2.848,3.217-3.328c1.138-0.262,2.3-0.418,3.897-0.527v-1.378
			c0-1.008-0.086-1.533-0.306-1.992c-0.284-0.572-0.899-0.854-1.796-0.854c-1.446,0-2.188,0.655-2.277,2.014
			c-0.022,0.459-0.065,0.612-0.241,0.745c-0.151,0.109-0.436,0.173-0.767,0.173c-0.742,0-1.072-0.196-1.072-0.655
			c0-0.791,0.571-1.577,1.489-2.103c0.831-0.459,1.904-0.7,3.196-0.7c1.403,0,2.41,0.327,2.936,0.963
			c0.437,0.545,0.634,1.27,0.634,2.476c0,0.064,0,0.064-0.043,2.211l-0.021,2.08l-0.025,1.006c0,0.921,0.111,1.708,0.244,1.886
			c0.13,0.173,0.393,0.238,1.225,0.238V29.123z M118.614,23.058c-1.947,0.173-2.803,0.351-3.678,0.786
			c-0.964,0.464-1.468,1.339-1.468,2.497c0,1.38,0.744,2.32,1.839,2.32c1.119,0,2.256-0.655,2.803-1.599
			c0.353-0.611,0.504-1.531,0.504-2.978V23.058z"/>
	</g>
	<g>
		<path fill="#FFFFFF" d="M7.145,3.99c-0.624,0-3.503,0-3.503,0s0,1.313,0,1.839c-0.918,0-3.431,0-3.431,0v26.923h28.312V5.83
			c0,0-2.514,0-3.431,0c0-0.526,0-1.839,0-1.839s-2.88,0-3.503,0c-1.492-2.409-4.029-3.743-7.222-3.743
			C11.174,0.248,8.636,1.581,7.145,3.99z M7.557,5.497h0.448l0.214-0.394c1.503-2.768,4.173-3.347,6.147-3.347
			s4.644,0.58,6.148,3.347l0.214,0.394c0,0,1.982,0,2.856,0c0,0.525,0,1.839,0,1.839s2.513,0,3.43,0c0,1.374,0,22.535,0,23.91
			c-1.382,0-23.916,0-25.297,0c0-1.375,0-22.536,0-23.91c0.917,0,3.429,0,3.429,0s0-1.313,0-1.839
			C6.022,5.497,7.557,5.497,7.557,5.497z"/>
	</g>
	<g>
		<g>
			<polygon fill="#FFFFFF" points="3.288,27.211 25.445,27.211 25.445,28.041 3.288,28.041 3.288,27.211 			"/>
			<path fill="#FFFFFF" d="M14.366,27.627"/>
		</g>
	</g>
	<g>
		<g>
			<polygon fill="#FFFFFF" points="2.638,28.661 26.097,28.661 26.097,29.489 2.638,29.489 2.638,28.661 			"/>
			<path fill="#FFFFFF" d="M14.367,29.076"/>
		</g>
	</g>
	<g>
		<path fill="#FFFFFF" d="M14.112,9.028L3.033,13.011l0.51,1.417c0,0,10.337-3.715,10.824-3.89c0.487,0.175,10.824,3.89,10.824,3.89
			l0.51-1.417L14.367,8.936L14.112,9.028z"/>
	</g>
	<path fill="#FFFFFF" d="M23.913,24.881l-0.208-8.442c0.066,0.036,0.139,0.059,0.219,0.059c0.26,0,0.47-0.21,0.47-0.47
		c0-0.127-0.051-0.243-0.133-0.326h0.379v-0.83H4.094v0.83H4.47c-0.083,0.083-0.134,0.199-0.134,0.326c0,0.26,0.21,0.47,0.472,0.47
		c0.075,0,0.145-0.02,0.208-0.053l-0.203,8.437H4.035v1.382h20.659v-1.382H23.913z M9.108,24.881H6.736l-0.206-8.438
		c0.064,0.033,0.136,0.054,0.212,0.054c0.259,0,0.469-0.21,0.469-0.47c0-0.127-0.051-0.243-0.133-0.326h1.682
		C8.68,15.785,8.628,15.9,8.628,16.027c0,0.26,0.212,0.47,0.47,0.47c0.077,0,0.148-0.021,0.213-0.054L9.108,24.881z M13.405,24.881
		h-2.375l-0.205-8.437c0.063,0.033,0.135,0.053,0.212,0.053c0.257,0,0.468-0.21,0.468-0.47c0-0.127-0.051-0.243-0.133-0.326h1.692
		c-0.082,0.083-0.133,0.199-0.133,0.326c0,0.26,0.21,0.47,0.469,0.47c0.076,0,0.146-0.02,0.21-0.053L13.405,24.881z M17.694,24.881
		H15.33l-0.207-8.43c0.061,0.028,0.128,0.046,0.199,0.046c0.259,0,0.469-0.21,0.469-0.47c0-0.127-0.051-0.243-0.133-0.326h1.693
		c-0.082,0.083-0.133,0.199-0.133,0.326c0,0.26,0.211,0.47,0.468,0.47c0.077,0,0.15-0.021,0.214-0.054L17.694,24.881z
		 M21.988,24.881h-2.367l-0.206-8.437c0.063,0.033,0.133,0.053,0.208,0.053c0.26,0,0.471-0.21,0.471-0.47
		c0-0.127-0.051-0.243-0.134-0.326h1.691c-0.081,0.083-0.132,0.199-0.132,0.326c0,0.26,0.21,0.47,0.468,0.47
		c0.075,0,0.145-0.02,0.207-0.051L21.988,24.881z"/>
</g>
</svg>
